<?xml version="1.0" ?><!-- Uploaded to: SVG Repo, www.svgrepo.com, Generator: SVG Repo Mixer Tools -->
<svg width="800px" height="800px" viewBox="0 0 32 32" id="object" xmlns="http://www.w3.org/2000/svg"><defs><style>.cls-1{fill:#ffd599;}.cls-2{fill:#6d6daa;}.cls-3{fill:#eef5fd;}</style></defs><title/><polygon class="cls-1" points="30 30 25 30 24 26 8 26 7 30 2 30 6 2 26 2 30 30"/><path class="cls-2" d="M30,31H25a1,1,0,0,1-1-.76L23.22,27H8.78L8,30.24A1,1,0,0,1,7,31H2a1,1,0,0,1-.76-.34,1,1,0,0,1-.23-.8l4-28A1,1,0,0,1,6,1H26a1,1,0,0,1,1,.86l4,28a1,1,0,0,1-.23.8A1,1,0,0,1,30,31Zm-4.22-2h3.07L25.13,3H6.87L3.15,29H6.22L7,25.76A1,1,0,0,1,8,25H24a1,1,0,0,1,1,.76Z"/><circle class="cls-3" cx="16" cy="14" r="6"/><path class="cls-2" d="M16,21a7,7,0,1,1,7-7A7,7,0,0,1,16,21ZM16,9a5,5,0,1,0,5,5A5,5,0,0,0,16,9Z"/><path class="cls-2" d="M12,19a1,1,0,0,1-.71-.29,1,1,0,0,1,0-1.42l8.06-8.06a1,1,0,1,1,1.42,1.42l-8.06,8.06A1,1,0,0,1,12,19Z"/></svg>